<?xml version="1.0" encoding="UTF-8" standalone="no"?>
<svg
   xmlns:dc="http://purl.org/dc/elements/1.1/"
   xmlns:cc="http://creativecommons.org/ns#"
   xmlns:rdf="http://www.w3.org/1999/02/22-rdf-syntax-ns#"
   xmlns:svg="http://www.w3.org/2000/svg"
   xmlns="http://www.w3.org/2000/svg"
   id="svg8"
   version="1.1"
   viewBox="0 0 150 150"
   height="150mm"
   width="150mm">
  <defs
     id="defs2" />
  <metadata
     id="metadata5">
    <rdf:RDF>
      <cc:Work
         rdf:about="">
        <dc:format>image/svg+xml</dc:format>
        <dc:type
           rdf:resource="http://purl.org/dc/dcmitype/StillImage" />
        <dc:title></dc:title>
      </cc:Work>
    </rdf:RDF>
  </metadata>
  <g
     transform="translate(-23.491222,-60.953721)"
     id="layer1">
    <path
       id="path3713"
       d="m 61.806713,166.90456 c -4.121937,0.18539 -8.295181,-1.13142 -11.564256,-3.64893 -3.269076,-2.51752 -5.608252,-6.21592 -6.481969,-10.24846 -0.873716,-4.03254 -0.275095,-8.36746 1.658807,-12.01229 1.933902,-3.64482 5.187863,-6.57086 9.016881,-8.10818 2.95366,-1.18587 6.209306,-1.55306 9.375367,-1.22679 3.166062,0.32627 6.243866,1.33309 9.075264,2.7869 5.662797,2.90764 10.266155,7.52305 14.325648,12.42632 4.059494,4.90328 7.679842,10.17069 11.962118,14.88065 4.282277,4.70996 9.348727,8.91455 15.359817,11.00941 6.5147,2.27037 13.8746,1.86452 20.20159,-0.88594 6.32699,-2.75047 11.592,-7.77847 14.85157,-13.85886 3.25958,-6.08038 4.53371,-13.16539 3.84665,-20.03008 -0.68706,-6.86468 -3.30233,-13.49418 -7.28174,-19.1298 -7.95882,-11.27124 -21.13406,-18.2324 -34.76406,-20.378738 -13.629999,-2.146338 -27.675008,0.180272 -40.699248,4.735798 -7.621041,2.66563 -14.976563,6.08976 -21.922618,10.20536"
       style="fill:none;stroke:#000000;stroke-width:0.26458332px;stroke-linecap:butt;stroke-linejoin:miter;stroke-opacity:1" />
  </g>
</svg>
